<svg id="Layer_1" data-name="Layer 1" xmlns="http://www.w3.org/2000/svg" xmlns:xlink="http://www.w3.org/1999/xlink" viewBox="0 0 177.63 45.62"><defs><style>.cls-1{fill:#778692;}.cls-2{fill:url(#radial-gradient);}.cls-3{fill:url(#radial-gradient-2);}</style><radialGradient id="radial-gradient" cx="54.26" cy="41.76" r="42.07" gradientUnits="userSpaceOnUse"><stop offset="0" stop-color="#3b738f"/><stop offset="1" stop-color="#3b738f" stop-opacity="0.3"/></radialGradient><radialGradient id="radial-gradient-2" cx="75.16" cy="19.16" r="32.76" gradientUnits="userSpaceOnUse"><stop offset="0" stop-color="#f4a251"/><stop offset="1" stop-color="#f4a251" stop-opacity="0.3"/></radialGradient></defs><title>ci-logo</title><path class="cls-1" d="M92.32,21.65a4.83,4.83,0,0,0-1.34-1,3.76,3.76,0,0,0-1.67-.34,3.69,3.69,0,0,0-1.65.34,3.35,3.35,0,0,0-1.17.94A4.24,4.24,0,0,0,85.77,23a5.42,5.42,0,0,0-.24,1.62,4.52,4.52,0,0,0,.28,1.6,4,4,0,0,0,.79,1.31,3.64,3.64,0,0,0,1.23.88,3.9,3.9,0,0,0,1.61.32,3.68,3.68,0,0,0,1.66-.34,4.26,4.26,0,0,0,1.28-1L94,29a5.15,5.15,0,0,1-2.08,1.43,7.27,7.27,0,0,1-2.51.43,6.91,6.91,0,0,1-2.56-.46,5.93,5.93,0,0,1-2-1.29,5.7,5.7,0,0,1-1.3-2,6.92,6.92,0,0,1-.46-2.56A7,7,0,0,1,83.54,22a5.75,5.75,0,0,1,3.28-3.33,6.82,6.82,0,0,1,2.59-.47,7,7,0,0,1,2.54.47,5.59,5.59,0,0,1,2.11,1.44Z" transform="translate(-13.29 -11.24)"/><path class="cls-1" d="M96,11.24h2.3V20.3h0.05a3.38,3.38,0,0,1,1.51-1.57,5,5,0,0,1,2.48-.6,5.25,5.25,0,0,1,1.67.27,3.78,3.78,0,0,1,1.4.83,4,4,0,0,1,1,1.44,5.51,5.51,0,0,1,.36,2.08v7.79h-2.3V23.39a4,4,0,0,0-.23-1.44,2.64,2.64,0,0,0-.61-1,2.31,2.31,0,0,0-.88-0.54,3.24,3.24,0,0,0-1-.17,3.76,3.76,0,0,0-1.33.23,2.76,2.76,0,0,0-1.07.73,3.43,3.43,0,0,0-.71,1.26,5.74,5.74,0,0,0-.26,1.81v6.23H96V11.24Z" transform="translate(-13.29 -11.24)"/><path class="cls-1" d="M110.21,19.92a6.39,6.39,0,0,1,2.25-1.34,7.68,7.68,0,0,1,2.55-.45,7,7,0,0,1,2.28.33,4.45,4.45,0,0,1,1.57.89,3.53,3.53,0,0,1,.91,1.29,4,4,0,0,1,.29,1.52v6.18q0,0.64,0,1.17t0.08,1h-2Q118,29.62,118,28.7H118a4.4,4.4,0,0,1-1.81,1.66,5.71,5.71,0,0,1-2.42.48,5.58,5.58,0,0,1-1.61-.23,3.92,3.92,0,0,1-1.34-.69,3.28,3.28,0,0,1-.91-1.14,3.92,3.92,0,0,1,.19-3.54A4,4,0,0,1,111.53,24a6.9,6.9,0,0,1,2.12-.71,14.72,14.72,0,0,1,2.59-.22h1.68V22.52a2.52,2.52,0,0,0-.18-0.92,2.49,2.49,0,0,0-.54-0.83,2.55,2.55,0,0,0-.89-0.59A3.4,3.4,0,0,0,115,20a4.71,4.71,0,0,0-1.16.13,5.17,5.17,0,0,0-.91.32,4,4,0,0,0-.74.45l-0.64.48Zm6.48,4.8a16.21,16.21,0,0,0-1.67.09,6.57,6.57,0,0,0-1.56.34,3,3,0,0,0-1.15.71,1.61,1.61,0,0,0-.45,1.17,1.66,1.66,0,0,0,.7,1.51,3.44,3.44,0,0,0,1.9.46,3.68,3.68,0,0,0,1.61-.32,3,3,0,0,0,1.07-.83,3.22,3.22,0,0,0,.59-1.14,4.49,4.49,0,0,0,.18-1.24V24.72H116.7Z" transform="translate(-13.29 -11.24)"/><path class="cls-1" d="M123.41,18.44h2.3V20.3h0.05a3.38,3.38,0,0,1,1.51-1.57,5,5,0,0,1,2.48-.6,5.25,5.25,0,0,1,1.67.27,3.78,3.78,0,0,1,1.4.83,4,4,0,0,1,1,1.44,5.51,5.51,0,0,1,.36,2.08v7.79h-2.3V23.39a4,4,0,0,0-.23-1.44,2.64,2.64,0,0,0-.61-1,2.31,2.31,0,0,0-.88-0.54,3.24,3.24,0,0,0-1-.17,3.76,3.76,0,0,0-1.33.23,2.76,2.76,0,0,0-1.07.73,3.43,3.43,0,0,0-.71,1.26,5.74,5.74,0,0,0-.26,1.81v6.23h-2.3V18.44Z" transform="translate(-13.29 -11.24)"/><path class="cls-1" d="M149.72,30.43a6.49,6.49,0,0,1-.47,2.51,5.73,5.73,0,0,1-1.34,2,6.07,6.07,0,0,1-2.09,1.29,7.66,7.66,0,0,1-2.71.46,9.93,9.93,0,0,1-3.18-.48,7.68,7.68,0,0,1-2.74-1.68l1.56-1.94A6.35,6.35,0,0,0,140.69,34a5.46,5.46,0,0,0,2.37.5,5.29,5.29,0,0,0,2.12-.37,3.65,3.65,0,0,0,1.34-1,3.45,3.45,0,0,0,.7-1.34,5.77,5.77,0,0,0,.2-1.52V28.54h-0.08a4,4,0,0,1-1.8,1.62,5.63,5.63,0,0,1-2.39.52,6.35,6.35,0,0,1-2.46-.47,5.87,5.87,0,0,1-2-1.3,5.94,5.94,0,0,1-1.28-2,6.51,6.51,0,0,1-.46-2.46,7,7,0,0,1,.43-2.49,6.09,6.09,0,0,1,1.24-2,5.62,5.62,0,0,1,1.94-1.35,6.4,6.4,0,0,1,2.54-.48,5.64,5.64,0,0,1,2.39.54,4.38,4.38,0,0,1,1.83,1.51h0.05V18.44h2.3v12Zm-6.28-10.16a4.15,4.15,0,0,0-1.66.32,3.67,3.67,0,0,0-1.25.87,3.83,3.83,0,0,0-.79,1.33,5,5,0,0,0-.28,1.7,4.07,4.07,0,0,0,1.07,2.95,4.37,4.37,0,0,0,5.82,0,4.07,4.07,0,0,0,1.07-2.95,5,5,0,0,0-.28-1.7,3.84,3.84,0,0,0-.79-1.33,3.68,3.68,0,0,0-1.25-.87A4.16,4.16,0,0,0,143.44,20.27Z" transform="translate(-13.29 -11.24)"/><path class="cls-1" d="M154.93,25.33a3,3,0,0,0,.34,1.44,3.58,3.58,0,0,0,.91,1.11,4.18,4.18,0,0,0,1.3.71,4.66,4.66,0,0,0,1.53.26,3.43,3.43,0,0,0,1.86-.5A6,6,0,0,0,162.33,27l1.74,1.33a6.39,6.39,0,0,1-5.36,2.48,6.66,6.66,0,0,1-2.59-.48,5.64,5.64,0,0,1-2-1.34,5.94,5.94,0,0,1-1.24-2,7.12,7.12,0,0,1-.43-2.51A6.61,6.61,0,0,1,153,22a6.23,6.23,0,0,1,1.3-2,5.94,5.94,0,0,1,2-1.34,6.37,6.37,0,0,1,2.5-.48,6,6,0,0,1,2.72.56,5.38,5.38,0,0,1,1.83,1.47,5.8,5.8,0,0,1,1,2,8.52,8.52,0,0,1,.32,2.31v0.82h-9.7Zm7.25-1.84a4.87,4.87,0,0,0-.24-1.4,3.11,3.11,0,0,0-.65-1.11,3,3,0,0,0-1.08-.74,4,4,0,0,0-1.52-.27,3.69,3.69,0,0,0-1.54.32,3.76,3.76,0,0,0-1.19.83,3.83,3.83,0,0,0-.75,1.14,3.12,3.12,0,0,0-.27,1.24h7.25Z" transform="translate(-13.29 -11.24)"/><path class="cls-1" d="M83.31,38.53a1.7,1.7,0,1,1,.5,1.19A1.62,1.62,0,0,1,83.31,38.53Zm0.54,4.34h2.3V55h-2.3V42.87Z" transform="translate(-13.29 -11.24)"/><path class="cls-1" d="M89.79,42.87h2.3v1.86h0.05a3.38,3.38,0,0,1,1.51-1.57,5,5,0,0,1,2.48-.6,5.25,5.25,0,0,1,1.67.27,3.78,3.78,0,0,1,1.4.83,4,4,0,0,1,1,1.44,5.51,5.51,0,0,1,.36,2.08V55h-2.3V47.82A4,4,0,0,0,98,46.38a2.64,2.64,0,0,0-.61-1,2.31,2.31,0,0,0-.88-0.54,3.24,3.24,0,0,0-1-.17,3.76,3.76,0,0,0-1.33.23,2.76,2.76,0,0,0-1.07.73,3.43,3.43,0,0,0-.71,1.26,5.74,5.74,0,0,0-.26,1.81V55h-2.3V42.87Z" transform="translate(-13.29 -11.24)"/><path class="cls-1" d="M112.64,46.08a4.83,4.83,0,0,0-1.34-1,3.76,3.76,0,0,0-1.67-.34,3.69,3.69,0,0,0-1.65.34,3.35,3.35,0,0,0-1.17.94,4.24,4.24,0,0,0-.71,1.38,5.42,5.42,0,0,0-.24,1.62,4.52,4.52,0,0,0,.28,1.6,4,4,0,0,0,.79,1.31,3.64,3.64,0,0,0,1.23.88,3.9,3.9,0,0,0,1.61.32,3.68,3.68,0,0,0,1.66-.34,4.26,4.26,0,0,0,1.28-1l1.63,1.63a5.15,5.15,0,0,1-2.08,1.43,7.27,7.27,0,0,1-2.51.43,6.91,6.91,0,0,1-2.56-.46,5.93,5.93,0,0,1-2-1.29,5.7,5.7,0,0,1-1.3-2A6.92,6.92,0,0,1,103.4,49a7,7,0,0,1,.46-2.58,5.75,5.75,0,0,1,3.28-3.33,6.82,6.82,0,0,1,2.59-.47,7,7,0,0,1,2.54.47,5.59,5.59,0,0,1,2.11,1.44Z" transform="translate(-13.29 -11.24)"/><path class="cls-1" d="M127,55h-2.3V53.1h-0.05a3.39,3.39,0,0,1-1.51,1.57,5,5,0,0,1-2.48.6A5.21,5.21,0,0,1,119,55a3.78,3.78,0,0,1-1.39-.83,4,4,0,0,1-1-1.44,5.51,5.51,0,0,1-.36-2.08V42.87h2.3V50a4,4,0,0,0,.23,1.44,2.63,2.63,0,0,0,.61,1,2.3,2.3,0,0,0,.88.54,3.23,3.23,0,0,0,1,.17,3.76,3.76,0,0,0,1.33-.23,2.77,2.77,0,0,0,1.07-.73,3.43,3.43,0,0,0,.71-1.26,5.75,5.75,0,0,0,.26-1.81V42.87H127V55Z" transform="translate(-13.29 -11.24)"/><path class="cls-1" d="M130.48,35.67h2.3V44.6h0.05a4.19,4.19,0,0,1,1.76-1.49,5.61,5.61,0,0,1,2.45-.55,6.41,6.41,0,0,1,2.54.48,5.69,5.69,0,0,1,1.94,1.34,6,6,0,0,1,1.24,2,7.13,7.13,0,0,1,.43,2.51,7,7,0,0,1-.43,2.5,6.12,6.12,0,0,1-1.24,2,5.61,5.61,0,0,1-1.94,1.35,6.41,6.41,0,0,1-2.54.48,5.64,5.64,0,0,1-2.39-.54,4.37,4.37,0,0,1-1.82-1.51h-0.05V55h-2.3V35.67Zm6.28,17.46a4.15,4.15,0,0,0,1.66-.32,3.66,3.66,0,0,0,1.25-.87,3.82,3.82,0,0,0,.79-1.33,5.27,5.27,0,0,0,0-3.39,3.84,3.84,0,0,0-.79-1.33,3.68,3.68,0,0,0-1.25-.87,4.48,4.48,0,0,0-3.32,0,3.67,3.67,0,0,0-1.25.87,3.82,3.82,0,0,0-.79,1.33,5.27,5.27,0,0,0,0,3.39,3.81,3.81,0,0,0,.79,1.33,3.66,3.66,0,0,0,1.25.87A4.15,4.15,0,0,0,136.76,53.13Z" transform="translate(-13.29 -11.24)"/><path class="cls-1" d="M146.12,44.35A6.39,6.39,0,0,1,148.37,43a7.68,7.68,0,0,1,2.55-.45,7,7,0,0,1,2.28.33,4.45,4.45,0,0,1,1.57.89,3.53,3.53,0,0,1,.91,1.29,4,4,0,0,1,.29,1.52v6.18q0,0.64,0,1.17t0.08,1h-2Q154,54,154,53.13h-0.05a4.4,4.4,0,0,1-1.81,1.66,5.71,5.71,0,0,1-2.42.48,5.58,5.58,0,0,1-1.61-.23,3.92,3.92,0,0,1-1.34-.69,3.28,3.28,0,0,1-.91-1.14,3.92,3.92,0,0,1,.19-3.54,4,4,0,0,1,1.43-1.29,6.9,6.9,0,0,1,2.12-.71,14.72,14.72,0,0,1,2.59-.22h1.68V46.95a2.52,2.52,0,0,0-.18-0.92,2.49,2.49,0,0,0-.54-0.83,2.55,2.55,0,0,0-.89-0.59,3.4,3.4,0,0,0-1.28-.22,4.71,4.71,0,0,0-1.16.13,5.17,5.17,0,0,0-.91.32,4,4,0,0,0-.74.45l-0.64.48Zm6.48,4.8a16.21,16.21,0,0,0-1.67.09,6.57,6.57,0,0,0-1.56.34,3,3,0,0,0-1.15.71,1.61,1.61,0,0,0-.45,1.17,1.66,1.66,0,0,0,.7,1.51,3.44,3.44,0,0,0,1.9.46,3.68,3.68,0,0,0,1.61-.32,3,3,0,0,0,1.07-.83,3.22,3.22,0,0,0,.59-1.14,4.49,4.49,0,0,0,.18-1.24V49.14h-1.23Z" transform="translate(-13.29 -11.24)"/><path class="cls-1" d="M165.8,44.86h-3.29v5.49q0,0.51,0,1a2.64,2.64,0,0,0,.19.89,1.45,1.45,0,0,0,.51.64,1.75,1.75,0,0,0,1,.24,4.83,4.83,0,0,0,.84-0.08,2.41,2.41,0,0,0,.79-0.28v2.09a3,3,0,0,1-1.06.32,8,8,0,0,1-1,.09,4.62,4.62,0,0,1-2.05-.37,2.52,2.52,0,0,1-1.07-1,3.1,3.1,0,0,1-.41-1.31q-0.06-.73-0.06-1.47v-6.3h-2.65v-2h2.65V39.47h2.3v3.39h3.29v2Z" transform="translate(-13.29 -11.24)"/><path class="cls-1" d="M168.18,48.91a6.16,6.16,0,0,1,.5-2.48,6.44,6.44,0,0,1,1.37-2,6.5,6.5,0,0,1,9.14,0,6.45,6.45,0,0,1,1.37,2,6.16,6.16,0,0,1,.5,2.48,6.29,6.29,0,0,1-1.86,4.5,6.49,6.49,0,0,1-2,1.35,6.67,6.67,0,0,1-5.05,0,6.48,6.48,0,0,1-2-1.35A6.29,6.29,0,0,1,168.18,48.91Zm2.45,0a5,5,0,0,0,.28,1.7,3.81,3.81,0,0,0,.79,1.33,3.66,3.66,0,0,0,1.25.87,4.48,4.48,0,0,0,3.32,0,3.67,3.67,0,0,0,1.25-.87,3.83,3.83,0,0,0,.79-1.33,5.27,5.27,0,0,0,0-3.39,3.84,3.84,0,0,0-.79-1.33,3.68,3.68,0,0,0-1.25-.87A4.48,4.48,0,0,0,173,45a3.67,3.67,0,0,0-1.25.87,3.83,3.83,0,0,0-.79,1.33A5,5,0,0,0,170.63,48.91Z" transform="translate(-13.29 -11.24)"/><path class="cls-1" d="M183.93,42.87h2.3v1.86h0.05a3.29,3.29,0,0,1,.61-0.88,4.11,4.11,0,0,1,.86-0.68,4.55,4.55,0,0,1,1-.45,4,4,0,0,1,1.12-.17,3.22,3.22,0,0,1,1,.15l-0.1,2.48-0.56-.13a3.12,3.12,0,0,0-.56-0.05,3.38,3.38,0,0,0-2.58.94,4.15,4.15,0,0,0-.89,2.94V55h-2.3V42.87Z" transform="translate(-13.29 -11.24)"/><path class="cls-2" d="M30.7,14.55c-7.44,0-17.41,10.3-17.41,23.78S25.59,56.86,33,56.86c7.85,0,13.17-6.84,17.5-15C43.14,35.19,42.24,14.55,30.7,14.55Z" transform="translate(-13.29 -11.24)"/><path class="cls-3" d="M68.36,11.55c-7.14,0-11.39,18.13-17.84,30.29a7.39,7.39,0,0,0,5.09,2c8.41,0,17.77-14.13,17.77-24.72C73.39,13.37,71,11.55,68.36,11.55Z" transform="translate(-13.29 -11.24)"/></svg>