<?xml version="1.0" encoding="utf-8"?>
<!-- Generator: Adobe Illustrator 19.2.1, SVG Export Plug-In . SVG Version: 6.00 Build 0)  -->
<!DOCTYPE svg PUBLIC "-//W3C//DTD SVG 1.1//EN" "http://www.w3.org/Graphics/SVG/1.1/DTD/svg11.dtd">
<svg version="1.1" id="Layer_1" xmlns="http://www.w3.org/2000/svg" xmlns:xlink="http://www.w3.org/1999/xlink" x="0px" y="0px"
	 viewBox="0 0 425.6 105.8" enable-background="new 0 0 425.6 105.8" xml:space="preserve">
<g>
	<path fill="#778692" d="M92.3,40.8c-0.4-0.4-0.9-0.8-1.3-1c-0.5-0.2-1-0.3-1.7-0.3c-0.6,0-1.2,0.1-1.6,0.3
		c-0.5,0.2-0.9,0.5-1.2,0.9c-0.3,0.4-0.6,0.9-0.7,1.4s-0.2,1.1-0.2,1.6s0.1,1.1,0.3,1.6c0.2,0.5,0.5,0.9,0.8,1.3
		c0.3,0.4,0.7,0.7,1.2,0.9s1,0.3,1.6,0.3c0.6,0,1.2-0.1,1.7-0.3c0.5-0.2,0.9-0.6,1.3-1l1.6,1.6c-0.6,0.7-1.3,1.1-2.1,1.4
		c-0.8,0.3-1.6,0.4-2.5,0.4c-0.9,0-1.8-0.2-2.6-0.5c-0.8-0.3-1.4-0.7-2-1.3c-0.6-0.6-1-1.2-1.3-2c-0.3-0.8-0.5-1.6-0.5-2.6
		s0.2-1.8,0.5-2.6c0.3-0.8,0.7-1.5,1.3-2c0.6-0.6,1.2-1,2-1.3c0.8-0.3,1.6-0.5,2.6-0.5c0.9,0,1.7,0.2,2.5,0.5
		c0.8,0.3,1.5,0.8,2.1,1.4L92.3,40.8z"/>
	<path fill="#778692" d="M96,30.4h2.3v9.1h0.1c0.3-0.6,0.8-1.2,1.5-1.6c0.7-0.4,1.5-0.6,2.5-0.6c0.6,0,1.1,0.1,1.7,0.3
		c0.5,0.2,1,0.5,1.4,0.8c0.4,0.4,0.7,0.9,1,1.4s0.4,1.3,0.4,2.1v7.8h-2.3v-7.1c0-0.6-0.1-1-0.2-1.4c-0.2-0.4-0.4-0.7-0.6-1
		c-0.3-0.2-0.5-0.4-0.9-0.5c-0.3-0.1-0.7-0.2-1-0.2c-0.5,0-0.9,0.1-1.3,0.2c-0.4,0.2-0.8,0.4-1.1,0.7c-0.3,0.3-0.5,0.8-0.7,1.3
		c-0.2,0.5-0.3,1.1-0.3,1.8v6.2H96V30.4z"/>
	<path fill="#778692" d="M110.2,39c0.6-0.6,1.4-1,2.2-1.3c0.9-0.3,1.7-0.4,2.6-0.4c0.9,0,1.6,0.1,2.3,0.3c0.6,0.2,1.2,0.5,1.6,0.9
		c0.4,0.4,0.7,0.8,0.9,1.3c0.2,0.5,0.3,1,0.3,1.5v6.2c0,0.4,0,0.8,0,1.2s0,0.7,0.1,1h-2c-0.1-0.6-0.1-1.2-0.1-1.8H118
		c-0.5,0.8-1.1,1.3-1.8,1.7s-1.5,0.5-2.4,0.5c-0.6,0-1.1-0.1-1.6-0.2c-0.5-0.2-1-0.4-1.3-0.7c-0.4-0.3-0.7-0.7-0.9-1.1
		c-0.2-0.5-0.3-1-0.3-1.6c0-0.8,0.2-1.4,0.5-2c0.3-0.5,0.8-1,1.4-1.3c0.6-0.3,1.3-0.6,2.1-0.7c0.8-0.1,1.7-0.2,2.6-0.2h1.7v-0.5
		c0-0.3-0.1-0.6-0.2-0.9s-0.3-0.6-0.5-0.8c-0.2-0.2-0.5-0.4-0.9-0.6s-0.8-0.2-1.3-0.2c-0.4,0-0.8,0-1.2,0.1
		c-0.3,0.1-0.6,0.2-0.9,0.3c-0.3,0.1-0.5,0.3-0.7,0.4c-0.2,0.2-0.4,0.3-0.6,0.5L110.2,39z M116.7,43.8c-0.5,0-1.1,0-1.7,0.1
		c-0.6,0.1-1.1,0.2-1.6,0.3c-0.5,0.2-0.9,0.4-1.1,0.7c-0.3,0.3-0.4,0.7-0.4,1.2c0,0.7,0.2,1.2,0.7,1.5c0.5,0.3,1.1,0.5,1.9,0.5
		c0.6,0,1.2-0.1,1.6-0.3c0.4-0.2,0.8-0.5,1.1-0.8c0.3-0.3,0.5-0.7,0.6-1.1s0.2-0.8,0.2-1.2v-0.8H116.7z"/>
	<path fill="#778692" d="M123.4,37.6h2.3v1.9h0.1c0.3-0.6,0.8-1.2,1.5-1.6c0.7-0.4,1.5-0.6,2.5-0.6c0.6,0,1.1,0.1,1.7,0.3
		c0.5,0.2,1,0.5,1.4,0.8c0.4,0.4,0.7,0.9,1,1.4s0.4,1.3,0.4,2.1v7.8h-2.3v-7.1c0-0.6-0.1-1-0.2-1.4c-0.2-0.4-0.4-0.7-0.6-1
		c-0.3-0.2-0.5-0.4-0.9-0.5c-0.3-0.1-0.7-0.2-1-0.2c-0.5,0-0.9,0.1-1.3,0.2c-0.4,0.2-0.8,0.4-1.1,0.7c-0.3,0.3-0.5,0.8-0.7,1.3
		c-0.2,0.5-0.3,1.1-0.3,1.8v6.2h-2.3V37.6z"/>
	<path fill="#778692" d="M149.7,49.6c0,0.9-0.2,1.8-0.5,2.5c-0.3,0.8-0.8,1.4-1.3,2c-0.6,0.6-1.3,1-2.1,1.3s-1.7,0.5-2.7,0.5
		c-1.2,0-2.2-0.2-3.2-0.5c-1-0.3-1.9-0.9-2.7-1.7l1.6-1.9c0.6,0.6,1.2,1.1,1.9,1.5c0.7,0.3,1.5,0.5,2.4,0.5c0.9,0,1.6-0.1,2.1-0.4
		c0.6-0.2,1-0.6,1.3-1c0.3-0.4,0.6-0.8,0.7-1.3s0.2-1,0.2-1.5v-1.8h-0.1c-0.4,0.7-1,1.3-1.8,1.6c-0.8,0.3-1.6,0.5-2.4,0.5
		c-0.9,0-1.7-0.2-2.5-0.5c-0.8-0.3-1.4-0.7-2-1.3c-0.5-0.6-1-1.2-1.3-2c-0.3-0.8-0.5-1.6-0.5-2.5s0.1-1.7,0.4-2.5
		c0.3-0.8,0.7-1.5,1.2-2c0.5-0.6,1.2-1,1.9-1.4c0.8-0.3,1.6-0.5,2.5-0.5c0.8,0,1.6,0.2,2.4,0.5c0.8,0.4,1.4,0.9,1.8,1.5h0.1v-1.7
		h2.3V49.6z M143.4,39.4c-0.6,0-1.2,0.1-1.7,0.3c-0.5,0.2-0.9,0.5-1.3,0.9c-0.3,0.4-0.6,0.8-0.8,1.3c-0.2,0.5-0.3,1.1-0.3,1.7
		c0,1.2,0.4,2.2,1.1,2.9c0.7,0.7,1.7,1.1,2.9,1.1c1.2,0,2.2-0.4,2.9-1.1c0.7-0.7,1.1-1.7,1.1-2.9c0-0.6-0.1-1.2-0.3-1.7
		c-0.2-0.5-0.5-1-0.8-1.3c-0.3-0.4-0.8-0.7-1.3-0.9C144.6,39.5,144.1,39.4,143.4,39.4z"/>
	<path fill="#778692" d="M154.9,44.4c0,0.5,0.1,1,0.3,1.4c0.2,0.4,0.5,0.8,0.9,1.1c0.4,0.3,0.8,0.5,1.3,0.7c0.5,0.2,1,0.3,1.5,0.3
		c0.7,0,1.3-0.2,1.9-0.5c0.5-0.3,1-0.8,1.5-1.3l1.7,1.3c-1.3,1.7-3.1,2.5-5.4,2.5c-1,0-1.8-0.2-2.6-0.5c-0.8-0.3-1.4-0.8-2-1.3
		s-0.9-1.2-1.2-2c-0.3-0.8-0.4-1.6-0.4-2.5c0-0.9,0.2-1.7,0.5-2.5c0.3-0.8,0.7-1.4,1.3-2c0.6-0.6,1.2-1,2-1.3
		c0.8-0.3,1.6-0.5,2.5-0.5c1.1,0,2,0.2,2.7,0.6c0.7,0.4,1.3,0.9,1.8,1.5c0.5,0.6,0.8,1.3,1,2c0.2,0.8,0.3,1.5,0.3,2.3v0.8H154.9z
		 M162.2,42.6c0-0.5-0.1-1-0.2-1.4c-0.1-0.4-0.4-0.8-0.7-1.1c-0.3-0.3-0.7-0.6-1.1-0.7s-0.9-0.3-1.5-0.3c-0.6,0-1.1,0.1-1.5,0.3
		c-0.5,0.2-0.9,0.5-1.2,0.8s-0.6,0.7-0.8,1.1s-0.3,0.8-0.3,1.2H162.2z"/>
	<path fill="#778692" d="M83.3,57.6c0-0.5,0.2-0.9,0.5-1.2c0.3-0.3,0.7-0.5,1.2-0.5s0.9,0.2,1.2,0.5c0.3,0.3,0.5,0.7,0.5,1.2
		s-0.2,0.9-0.5,1.2c-0.3,0.3-0.7,0.5-1.2,0.5s-0.9-0.2-1.2-0.5C83.5,58.5,83.3,58.1,83.3,57.6z M83.8,62h2.3v12.1h-2.3V62z"/>
	<path fill="#778692" d="M89.8,62h2.3v1.9h0.1c0.3-0.6,0.8-1.2,1.5-1.6c0.7-0.4,1.5-0.6,2.5-0.6c0.6,0,1.1,0.1,1.7,0.3
		c0.5,0.2,1,0.5,1.4,0.8c0.4,0.4,0.7,0.9,1,1.4s0.4,1.3,0.4,2.1v7.8h-2.3v-7.1c0-0.6-0.1-1-0.2-1.4c-0.2-0.4-0.4-0.7-0.6-1
		c-0.3-0.2-0.5-0.4-0.9-0.5c-0.3-0.1-0.7-0.2-1-0.2c-0.5,0-0.9,0.1-1.3,0.2c-0.4,0.2-0.8,0.4-1.1,0.7c-0.3,0.3-0.5,0.8-0.7,1.3
		c-0.2,0.5-0.3,1.1-0.3,1.8v6.2h-2.3V62z"/>
	<path fill="#778692" d="M112.6,65.2c-0.4-0.4-0.9-0.8-1.3-1c-0.5-0.2-1-0.3-1.7-0.3c-0.6,0-1.2,0.1-1.6,0.3
		c-0.5,0.2-0.9,0.5-1.2,0.9c-0.3,0.4-0.6,0.9-0.7,1.4s-0.2,1.1-0.2,1.6s0.1,1.1,0.3,1.6c0.2,0.5,0.5,0.9,0.8,1.3
		c0.3,0.4,0.7,0.7,1.2,0.9s1,0.3,1.6,0.3c0.6,0,1.2-0.1,1.7-0.3c0.5-0.2,0.9-0.6,1.3-1l1.6,1.6c-0.6,0.7-1.3,1.1-2.1,1.4
		c-0.8,0.3-1.6,0.4-2.5,0.4c-0.9,0-1.8-0.2-2.6-0.5c-0.8-0.3-1.4-0.7-2-1.3c-0.6-0.6-1-1.2-1.3-2c-0.3-0.8-0.5-1.6-0.5-2.6
		s0.2-1.8,0.5-2.6c0.3-0.8,0.7-1.5,1.3-2c0.6-0.6,1.2-1,2-1.3c0.8-0.3,1.6-0.5,2.6-0.5c0.9,0,1.7,0.2,2.5,0.5
		c0.8,0.3,1.5,0.8,2.1,1.4L112.6,65.2z"/>
	<path fill="#778692" d="M127,74.1h-2.3v-1.9h-0.1c-0.3,0.6-0.8,1.2-1.5,1.6c-0.7,0.4-1.5,0.6-2.5,0.6c-0.6,0-1.2-0.1-1.7-0.3
		c-0.5-0.2-1-0.5-1.4-0.8c-0.4-0.4-0.7-0.9-1-1.4s-0.4-1.3-0.4-2.1V62h2.3v7.1c0,0.6,0.1,1,0.2,1.4c0.2,0.4,0.4,0.7,0.6,1
		c0.3,0.2,0.5,0.4,0.9,0.5c0.3,0.1,0.7,0.2,1,0.2c0.5,0,0.9-0.1,1.3-0.2c0.4-0.2,0.8-0.4,1.1-0.7c0.3-0.3,0.5-0.8,0.7-1.3
		c0.2-0.5,0.3-1.1,0.3-1.8V62h2.3V74.1z"/>
	<path fill="#778692" d="M130.5,54.8h2.3v8.9h0.1c0.4-0.6,1-1.1,1.8-1.5s1.6-0.5,2.5-0.5c0.9,0,1.8,0.2,2.5,0.5s1.4,0.8,1.9,1.3
		c0.5,0.6,0.9,1.2,1.2,2c0.3,0.8,0.4,1.6,0.4,2.5c0,0.9-0.1,1.7-0.4,2.5c-0.3,0.8-0.7,1.4-1.2,2c-0.5,0.6-1.2,1-1.9,1.4
		s-1.6,0.5-2.5,0.5c-0.8,0-1.6-0.2-2.4-0.5c-0.8-0.4-1.4-0.9-1.8-1.5h-0.1v1.7h-2.3V54.8z M136.8,72.2c0.6,0,1.2-0.1,1.7-0.3
		c0.5-0.2,0.9-0.5,1.3-0.9c0.3-0.4,0.6-0.8,0.8-1.3c0.2-0.5,0.3-1.1,0.3-1.7s-0.1-1.2-0.3-1.7c-0.2-0.5-0.5-1-0.8-1.3
		c-0.3-0.4-0.8-0.7-1.3-0.9c-0.5-0.2-1-0.3-1.7-0.3c-0.6,0-1.2,0.1-1.7,0.3c-0.5,0.2-0.9,0.5-1.3,0.9c-0.3,0.4-0.6,0.8-0.8,1.3
		c-0.2,0.5-0.3,1.1-0.3,1.7s0.1,1.2,0.3,1.7c0.2,0.5,0.5,1,0.8,1.3c0.3,0.4,0.8,0.7,1.3,0.9S136.1,72.2,136.8,72.2z"/>
	<path fill="#778692" d="M146.1,63.5c0.6-0.6,1.4-1,2.2-1.3s1.7-0.4,2.6-0.4c0.9,0,1.6,0.1,2.3,0.3c0.6,0.2,1.2,0.5,1.6,0.9
		c0.4,0.4,0.7,0.8,0.9,1.3c0.2,0.5,0.3,1,0.3,1.5v6.2c0,0.4,0,0.8,0,1.2s0,0.7,0.1,1h-2c-0.1-0.6-0.1-1.2-0.1-1.8h-0.1
		c-0.5,0.8-1.1,1.3-1.8,1.7s-1.5,0.5-2.4,0.5c-0.6,0-1.1-0.1-1.6-0.2c-0.5-0.2-1-0.4-1.3-0.7c-0.4-0.3-0.7-0.7-0.9-1.1
		c-0.2-0.5-0.3-1-0.3-1.6c0-0.8,0.2-1.4,0.5-2c0.3-0.5,0.8-1,1.4-1.3c0.6-0.3,1.3-0.6,2.1-0.7c0.8-0.1,1.7-0.2,2.6-0.2h1.7v-0.5
		c0-0.3-0.1-0.6-0.2-0.9s-0.3-0.6-0.5-0.8c-0.2-0.2-0.5-0.4-0.9-0.6s-0.8-0.2-1.3-0.2c-0.4,0-0.8,0-1.2,0.1
		c-0.3,0.1-0.6,0.2-0.9,0.3c-0.3,0.1-0.5,0.3-0.7,0.4c-0.2,0.2-0.4,0.3-0.6,0.5L146.1,63.5z M152.6,68.3c-0.5,0-1.1,0-1.7,0.1
		c-0.6,0.1-1.1,0.2-1.6,0.3c-0.5,0.2-0.9,0.4-1.1,0.7c-0.3,0.3-0.4,0.7-0.4,1.2c0,0.7,0.2,1.2,0.7,1.5c0.5,0.3,1.1,0.5,1.9,0.5
		c0.6,0,1.2-0.1,1.6-0.3c0.4-0.2,0.8-0.5,1.1-0.8c0.3-0.3,0.5-0.7,0.6-1.1s0.2-0.8,0.2-1.2v-0.8H152.6z"/>
	<path fill="#778692" d="M165.8,64h-3.3v5.5c0,0.3,0,0.7,0,1c0,0.3,0.1,0.6,0.2,0.9c0.1,0.3,0.3,0.5,0.5,0.6c0.2,0.2,0.6,0.2,1,0.2
		c0.3,0,0.6,0,0.8-0.1c0.3-0.1,0.6-0.1,0.8-0.3V74c-0.3,0.2-0.6,0.3-1.1,0.3c-0.4,0.1-0.8,0.1-1,0.1c-0.9,0-1.6-0.1-2.1-0.4
		c-0.5-0.2-0.8-0.6-1.1-1c-0.2-0.4-0.4-0.8-0.4-1.3s-0.1-1-0.1-1.5V64h-2.7v-2h2.7v-3.4h2.3V62h3.3V64z"/>
	<path fill="#778692" d="M168.2,68c0-0.9,0.2-1.7,0.5-2.5c0.3-0.8,0.8-1.4,1.4-2s1.3-1,2-1.4s1.6-0.5,2.5-0.5s1.7,0.2,2.5,0.5
		c0.8,0.3,1.5,0.8,2,1.4c0.6,0.6,1,1.3,1.4,2c0.3,0.8,0.5,1.6,0.5,2.5s-0.2,1.7-0.5,2.5c-0.3,0.8-0.8,1.4-1.4,2
		c-0.6,0.6-1.3,1-2,1.4c-0.8,0.3-1.6,0.5-2.5,0.5s-1.7-0.2-2.5-0.5s-1.5-0.8-2-1.4c-0.6-0.6-1-1.2-1.4-2
		C168.3,69.7,168.2,68.9,168.2,68z M170.6,68c0,0.6,0.1,1.2,0.3,1.7c0.2,0.5,0.5,1,0.8,1.3c0.3,0.4,0.8,0.7,1.3,0.9
		c0.5,0.2,1,0.3,1.7,0.3c0.6,0,1.2-0.1,1.7-0.3s0.9-0.5,1.3-0.9c0.3-0.4,0.6-0.8,0.8-1.3c0.2-0.5,0.3-1.1,0.3-1.7s-0.1-1.2-0.3-1.7
		c-0.2-0.5-0.5-1-0.8-1.3c-0.3-0.4-0.8-0.7-1.3-0.9c-0.5-0.2-1-0.3-1.7-0.3c-0.6,0-1.2,0.1-1.7,0.3c-0.5,0.2-0.9,0.5-1.3,0.9
		c-0.3,0.4-0.6,0.8-0.8,1.3C170.7,66.9,170.6,67.4,170.6,68z"/>
	<path fill="#778692" d="M183.9,62h2.3v1.9h0.1c0.2-0.3,0.4-0.6,0.6-0.9c0.3-0.3,0.5-0.5,0.9-0.7c0.3-0.2,0.7-0.3,1-0.4
		c0.4-0.1,0.7-0.2,1.1-0.2c0.4,0,0.7,0.1,1,0.2l-0.1,2.5c-0.2-0.1-0.4-0.1-0.6-0.1c-0.2,0-0.4-0.1-0.6-0.1c-1.1,0-2,0.3-2.6,0.9
		c-0.6,0.6-0.9,1.6-0.9,2.9v6.1h-2.3V62z"/>
</g>
<g>
	<radialGradient id="SVGID_1_" cx="54.2635" cy="60.8755" r="42.0737" gradientUnits="userSpaceOnUse">
		<stop  offset="0" style="stop-color:#3B738F"/>
		<stop  offset="1" style="stop-color:#3B738F;stop-opacity:0.3"/>
	</radialGradient>
	<path fill="url(#SVGID_1_)" d="M30.7,33.7c-7.4,0-17.4,10.3-17.4,23.8S25.6,76,33,76c7.8,0,13.2-6.8,17.5-15
		C43.1,54.3,42.2,33.7,30.7,33.7z"/>
	<radialGradient id="SVGID_2_" cx="75.157" cy="38.2764" r="32.7557" gradientUnits="userSpaceOnUse">
		<stop  offset="0" style="stop-color:#F4A251"/>
		<stop  offset="1" style="stop-color:#F4A251;stop-opacity:0.3"/>
	</radialGradient>
	<path fill="url(#SVGID_2_)" d="M68.4,30.7C61.2,30.7,57,48.8,50.5,61c1.4,1.3,3.1,2,5.1,2c8.4,0,17.8-14.1,17.8-24.7
		C73.4,32.5,71,30.7,68.4,30.7z"/>
</g>
<g>
	<path fill="#778692" d="M407.7,84.9l-0.4-0.2c-0.4-0.1-0.9-0.4-0.9-0.9c0-0.5,0.5-0.9,1.1-0.9c0.5,0,0.8,0.2,1,0.6l0.6-0.4
		c-0.3-0.6-0.9-0.9-1.6-0.9c-0.9,0-1.8,0.6-1.8,1.6c0,0.9,0.6,1.3,1.4,1.6l0.4,0.2c0.5,0.2,1.1,0.5,1.1,1.2c0,0.7-0.5,1.2-1.2,1.2
		c-0.7,0-1.2-0.5-1.2-1.2l-0.8,0.2c0.1,1,0.9,1.8,1.9,1.8c1.1,0,2-0.8,2-2C409.3,85.8,408.6,85.3,407.7,84.9 M403.1,87l-4.7-4.9v6.6
		h0.8V84l4.7,4.9v-6.5h-0.8V87z M393.7,88.1c-1.4,0-2.5-1.1-2.5-2.5c0-1.4,1-2.5,2.5-2.5c1.5,0,2.5,1.2,2.5,2.5
		C396.2,86.9,395,88.1,393.7,88.1 M393.7,82.3c-1.8,0-3.3,1.5-3.3,3.3c0,1.9,1.5,3.3,3.3,3.3c1.8,0,3.3-1.4,3.3-3.3
		C397,83.7,395.5,82.3,393.7,82.3 M388.2,88.6h0.8v-6.3h-0.8V88.6z M383.1,83.1h1.5v5.5h0.8v-5.5h1.5v-0.7h-3.8V83.1z M379,86.4
		l1.1-2.5l1.1,2.5H379z M377.1,88.6h0.8l0.7-1.6h2.9l0.7,1.6h0.8l-3-6.5L377.1,88.6z M372.4,82.4v0.7h2.7l-3.2,5.5h4.4v-0.7h-3.2
		l3.2-5.5H372.4z M369.8,88.6h0.8v-6.3h-0.8V88.6z M367.3,87l-4.7-4.9v6.6h0.8V84l4.7,4.9v-6.5h-0.8V87z M357.3,86.4l1.1-2.5
		l1.1,2.5H357.3z M355.4,88.6h0.8l0.7-1.6h2.9l0.7,1.6h0.8l-3-6.5L355.4,88.6z M352.1,86.2h1.6c0,1-1.1,1.9-2.1,1.9
		c-1.4,0-2.4-1.2-2.4-2.6c0-1.4,1.1-2.5,2.5-2.5c0.8,0,1.5,0.4,2,1l0.5-0.5c-0.6-0.8-1.6-1.2-2.5-1.2c-1.8,0-3.2,1.5-3.2,3.3
		c0,1.7,1.4,3.2,3.2,3.2c1.8,0,3-1.3,3-3v-0.3h-2.5V86.2z M344.7,85.4h-0.2v-2.3h0.2c0.8,0,1.7,0.1,1.7,1.1
		C346.3,85.2,345.5,85.4,344.7,85.4 M347.1,84.2c0-0.6-0.3-1.2-0.8-1.5c-0.5-0.3-1.1-0.3-1.7-0.3h-0.9v6.3h0.8V86h0.3l1.8,2.6h0.9
		l-2-2.7C346.5,85.8,347.1,85.1,347.1,84.2 M338.9,88.1c-1.4,0-2.5-1.1-2.5-2.5c0-1.4,1-2.5,2.5-2.5c1.5,0,2.5,1.2,2.5,2.5
		C341.4,86.9,340.3,88.1,338.9,88.1 M338.9,82.3c-1.8,0-3.3,1.5-3.3,3.3c0,1.9,1.5,3.3,3.3,3.3c1.8,0,3.3-1.4,3.3-3.3
		C342.2,83.7,340.7,82.3,338.9,82.3 M327.9,88.6h3.4v-0.7h-2.6v-2.4h2.5v-0.7h-2.5v-1.8h2.6v-0.7h-3.4V88.6z M323.9,87l-1.9-4.6
		h-0.9l2.7,6.6l2.7-6.6h-0.9L323.9,87z M319.2,88.6h0.8v-6.3h-0.8V88.6z M314.1,83.1h1.5v5.5h0.8v-5.5h1.5v-0.7h-3.8V83.1z
		 M308.2,85.6c0,1.8,1.5,3.2,3.3,3.2c0.5,0,1.2-0.2,1.6-0.4v-0.9c-0.5,0.4-1.1,0.6-1.7,0.6c-1.4,0-2.5-1.2-2.5-2.5
		c0-1.4,1.1-2.6,2.5-2.6c0.6,0,1.2,0.2,1.7,0.6v-0.9c-0.5-0.3-1-0.4-1.6-0.4C309.7,82.3,308.2,83.7,308.2,85.6 M303.5,88.6h3.4v-0.7
		h-2.6v-2.4h2.5v-0.7h-2.5v-1.8h2.6v-0.7h-3.4V88.6z M298.8,88.6h0.8v-3.1h2.2v-0.7h-2.2v-1.8h2.3v-0.7h-3V88.6z M294.2,88.6h0.8
		v-3.1h2.2v-0.7h-2.2v-1.8h2.3v-0.7h-3V88.6z M289.1,88.6h3.4v-0.7h-2.6v-2.4h2.5v-0.7h-2.5v-1.8h2.6v-0.7h-3.4V88.6z M371.7,74
		h-0.2v-2.3h0.2c0.8,0,1.7,0.1,1.7,1.1C373.4,73.9,372.5,74,371.7,74 M374.6,77.3l-2-2.7c0.9-0.1,1.5-0.9,1.5-1.8
		c0-0.6-0.3-1.2-0.8-1.5c-0.5-0.3-1.1-0.3-1.7-0.3h-0.9v6.3h0.8v-2.6h0.3l1.8,2.6H374.6z M365.9,76.7c-1.4,0-2.5-1.1-2.5-2.5
		c0-1.4,1-2.5,2.5-2.5c1.5,0,2.5,1.2,2.5,2.5C368.4,75.6,367.3,76.7,365.9,76.7 M365.9,71c-1.8,0-3.3,1.5-3.3,3.3
		c0,1.9,1.5,3.3,3.3,3.3c1.8,0,3.3-1.4,3.3-3.3C369.2,72.4,367.7,71,365.9,71 M358.4,77.3h0.8v-3.1h2.2v-0.7h-2.2v-1.8h2.2v-0.7h-3
		V77.3z M351.8,76.7c-0.7,0-1.2-0.5-1.2-1.2l-0.8,0.2c0.1,1,0.9,1.7,1.9,1.7c1.1,0,2-0.8,2-1.9c0-1-0.7-1.5-1.6-1.9l-0.4-0.2
		c-0.4-0.1-0.9-0.4-0.9-0.9c0-0.5,0.5-0.9,1-0.9c0.5,0,0.8,0.2,1,0.6l0.6-0.4c-0.3-0.6-0.9-0.9-1.6-0.9c-0.9,0-1.8,0.6-1.8,1.6
		c0,0.9,0.6,1.3,1.4,1.6l0.4,0.2c0.5,0.2,1.1,0.5,1.1,1.2C353,76.2,352.5,76.7,351.8,76.7 M346,74h-0.2v-2.3h0.2
		c0.8,0,1.7,0.1,1.7,1.1C347.6,73.9,346.8,74,346,74 M346.8,74.6c0.9-0.1,1.5-0.9,1.5-1.8c0-0.6-0.3-1.2-0.8-1.5
		c-0.5-0.3-1.1-0.3-1.7-0.3h-0.9v6.3h0.8v-2.6h0.3l1.8,2.6h0.9L346.8,74.6z M339.9,77.3h3.4v-0.7h-2.6v-2.4h2.5v-0.7h-2.5v-1.8h2.6
		v-0.7h-3.4V77.3z M338.7,77.3l-2.9-3.4l2.8-2.8h-1l-2.7,2.7v-2.7h-0.8v6.3h0.8v-2.6l0.3-0.3l2.4,2.9H338.7z M328.8,75.1l1.1-2.5
		l1.1,2.5H328.8z M327,77.3h0.8l0.7-1.6h2.9l0.7,1.6h0.8l-3-6.5L327,77.3z M324.7,73.2L324.7,73.2l0.7,4.1h0.8l-1.3-6.5l-2.2,4.9
		l-2.1-4.9l-1.3,6.5h0.8l0.7-4.1h0l1.9,4.3L324.7,73.2z M314.8,71.8h1.5v5.5h0.8v-5.5h1.5v-0.7h-3.8V71.8z M312.7,75.7l-4.7-4.9v6.6
		h0.8v-4.7l4.7,4.9v-6.5h-0.8V75.7z M302.8,75.1l1.1-2.5l1.1,2.5H302.8z M300.9,77.3h0.8l0.7-1.6h2.9l0.7,1.6h0.8l-3-6.5L300.9,77.3
		z M297.3,74h-0.2v-2.3h0.2c0.8,0,1.7,0.1,1.7,1.1C299,73.9,298.1,74,297.3,74 M300.2,77.3l-2-2.7c0.9-0.1,1.5-0.9,1.5-1.8
		c0-0.6-0.3-1.2-0.8-1.5c-0.5-0.3-1.1-0.3-1.7-0.3h-0.9v6.3h0.8v-2.6h0.3l1.8,2.6H300.2z M294.8,74.2h-2.5v0.7h1.6
		c0,1-1.1,1.9-2.1,1.9c-1.4,0-2.4-1.2-2.4-2.6c0-1.4,1.1-2.5,2.5-2.5c0.8,0,1.5,0.4,2,1l0.5-0.5c-0.6-0.8-1.6-1.2-2.6-1.2
		c-1.8,0-3.2,1.5-3.2,3.3c0,1.7,1.4,3.2,3.2,3.2c1.8,0,3-1.3,3-3V74.2z"/>
	<path fill="#778692" d="M292.3,36.9L292.3,36.9L292.3,36.9c0.2,0,0.3,0,0.4,0c5,0,9.8,4.2,10.5,9.2c0,0,0.1,1,0.1,1.2l3.1,0.1l0,0
		C306,39.2,299.4,34,292.3,34c-4,0-7.5,1.5-10.1,4c-2.5,2.5-4.1,6-4.1,10v0c0,3.9,1.5,7.5,4,10c2.5,2.5,6.1,4,10.1,4
		c0,0,0.1,0,0.1,0c4.9,0,9.7-2.4,12.3-7.2h-3.5c-2.1,2.8-5.2,4.3-8.9,4.3c0,0-0.1,0-0.1,0c-2.3,0-5-0.9-7.2-2.7
		c-2-1.7-3.5-4.1-3.8-7.5c-0.1-1.4,0.1-2.3,0.1-2.9C282.1,40.7,286.7,36.9,292.3,36.9 M322.2,59.2c-6.4,0-11.1-4.7-11.1-11.2
		c0-6.4,4.7-11.1,11.1-11.2c6.4,0,11.1,4.7,11.1,11.2C333.3,54.5,328.6,59.2,322.2,59.2 M332.3,38c-2.5-2.5-6.1-4-10.1-4
		c-4,0-7.5,1.5-10.1,4c-2.5,2.5-4,6.1-4,10c0,4,1.5,7.5,4.1,10.1c2.5,2.5,6.1,4,10.1,4h0c4,0,7.5-1.5,10.1-4c2.5-2.5,4-6.1,4-10.1
		C336.3,44.1,334.8,40.6,332.3,38 M260.8,59.2c-7.7,0-11.3-5.8-11.4-11.2c0-6.6,5-11.1,11.3-11.2c6.3,0,11.1,4.7,11.1,11.2
		C271.8,54.2,267.3,59.2,260.8,59.2 M271.6,39c-2.2-2.7-6.1-5-11-5c-4.4,0-8,1.7-10.4,4.3c-2.5,2.6-3.8,6.1-3.8,9.8
		c0,3.6,1.3,7.1,3.8,9.7c2.5,2.6,6.1,4.3,10.5,4.3c4.6,0,8.5-1.9,11-5.1v8c0,6.9-5.4,11.2-10.8,11.3c-2.1,0-4.7-0.7-6.9-2.4
		c-1.7-1.3-2.5-2.7-3.1-3.7l-0.2-0.4h-3.3l0.5,1.2c2.4,5.4,7.9,8.3,13.2,8.3c2.1,0,5.5-0.8,8.4-3c2.9-2.2,5.3-5.9,5.3-11.4V34.6h-3
		V39z"/>
	<polygon fill="#F7B334" points="294.9,49 318.2,47.6 295.8,45.9 301,41 294.6,44.5 308,4 291.7,44.1 286.4,38.3 289.4,45.9 
		266.4,47.4 288.5,49 282.9,54.3 289.3,50.7 276.6,89.5 292.4,50.7 298.4,57.4 	"/>
</g>
<g>
	<rect x="217.9" y="11" fill="#778692" width="1" height="83.7"/>
</g>
</svg>
