<svg id="Layer_1" data-name="Layer 1" xmlns="http://www.w3.org/2000/svg" viewBox="0 0 32 32"><defs><style>.cls-1{fill:#518196;}</style></defs><title>socail</title><path class="cls-1" d="M25.89,12.37c0,0.23,0,.45,0,0.68A14.78,14.78,0,0,1,11,27.93a14.78,14.78,0,0,1-8-2.35,10.83,10.83,0,0,0,1.26.06,10.47,10.47,0,0,0,6.49-2.24,5.24,5.24,0,0,1-4.89-3.63,6.46,6.46,0,0,0,1,.08,5.53,5.53,0,0,0,1.38-.18A5.23,5.23,0,0,1,4,14.55V14.49a5.26,5.26,0,0,0,2.36.66,5.24,5.24,0,0,1-1.62-7,14.86,14.86,0,0,0,10.78,5.47,6,6,0,0,1-.13-1.2,5.23,5.23,0,0,1,9-3.58A10.29,10.29,0,0,0,27.8,7.59a5.22,5.22,0,0,1-2.3,2.88,10.48,10.48,0,0,0,3-.81A11.23,11.23,0,0,1,25.89,12.37Z"/></svg>