<svg id="Layer_1" data-name="Layer 1" xmlns="http://www.w3.org/2000/svg" viewBox="0 0 162.89 85.47"><defs><style>.cls-1{fill:#fff;}</style></defs><title>whitelogogeo</title><path class="cls-1" d="M175.34,88.95l-0.45-.17a1.1,1.1,0,0,1-.87-0.9,1,1,0,0,1,1.05-.89,1.07,1.07,0,0,1,1,.59l0.62-.37a1.78,1.78,0,0,0-1.61-.95,1.71,1.71,0,0,0-1.84,1.62,1.77,1.77,0,0,0,1.36,1.59L175,89.64a1.36,1.36,0,0,1,1.08,1.19,1.18,1.18,0,1,1-2.37,0L173,91a2,2,0,0,0,3.93-.2,2,2,0,0,0-1.55-1.89M170.68,91L166,86.09v6.56h0.78V88l4.7,4.92V86.39h-0.78V91Zm-9.38,1a2.52,2.52,0,0,1-2.5-2.53,2.5,2.5,0,1,1,5,0,2.52,2.52,0,0,1-2.5,2.53m0-5.8A3.29,3.29,0,0,0,158,89.52a3.28,3.28,0,0,0,6.56,0,3.29,3.29,0,0,0-3.28-3.26m-5.51,6.4h0.78V86.39h-0.78v6.26Zm-5.06-5.55h1.49v5.55H153V87.1h1.49V86.39h-3.75V87.1Zm-4.1,3.26,1.11-2.53,1.11,2.53h-2.23Zm-1.88,2.28h0.84l0.71-1.57h2.87l0.72,1.57h0.84l-3-6.53ZM140,86.39V87.1h2.72l-3.17,5.55H144V91.94h-3.17L144,86.39h-4Zm-2.59,6.26h0.78V86.39h-0.78v6.26ZM134.86,91l-4.7-4.92v6.56h0.78V88l4.7,4.92V86.39h-0.78V91Zm-10-.65L126,87.83l1.11,2.53h-2.22ZM123,92.65h0.84l0.72-1.57h2.87l0.71,1.57H129l-3-6.53Zm-3.31-2.44h1.62a2.11,2.11,0,0,1-2.05,1.86,2.56,2.56,0,0,1-2.43-2.56A2.47,2.47,0,0,1,121.31,88l0.55-.52a3.26,3.26,0,0,0-5.8,2.07,3.24,3.24,0,0,0,3.16,3.25,2.91,2.91,0,0,0,3-3V89.49h-2.48v0.72Zm-7.42-.86H112V87.08h0.21c0.77,0,1.7.14,1.7,1.12s-0.87,1.15-1.66,1.15m2.39-1.18a1.74,1.74,0,0,0-.82-1.49,3.33,3.33,0,0,0-1.65-.29h-0.95v6.26H112V90h0.32l1.84,2.65h0.95l-2-2.72a1.71,1.71,0,0,0,1.5-1.76m-8.17,3.88a2.51,2.51,0,0,1-2.5-2.53,2.5,2.5,0,1,1,5,0,2.52,2.52,0,0,1-2.5,2.53m0-5.8a3.29,3.29,0,0,0-3.28,3.26,3.28,3.28,0,0,0,6.56,0,3.29,3.29,0,0,0-3.28-3.26m-11,6.4h3.36V91.94H96.29V89.57h2.51V88.85H96.29V87.1h2.58V86.39H95.51v6.26Zm-4-1.63-1.87-4.63H88.82L91.54,93l2.72-6.59H93.4Zm-4.74,1.63h0.78V86.39H86.81v6.26ZM81.75,87.1h1.49v5.55H84V87.1H85.5V86.39H81.75V87.1Zm-6,2.45A3.24,3.24,0,0,0,79,92.78a3.38,3.38,0,0,0,1.64-.44V91.42A2.52,2.52,0,1,1,79,87a2.53,2.53,0,0,1,1.65.62V86.68a3,3,0,0,0-1.58-.42,3.29,3.29,0,0,0-3.33,3.3m-4.7,3.1h3.37V91.94H71.86V89.57h2.51V88.85H71.86V87.1h2.58V86.39H71.08v6.26Zm-4.66,0h0.78V89.58h2.18V88.86H67.19V87.1h2.25V86.39h-3v6.26Zm-4.65,0h0.78V89.58h2.18V88.86H62.54V87.1h2.25V86.39h-3v6.26Zm-5,0h3.36V91.94H57.51V89.57H60V88.85H57.51V87.1h2.58V86.39H56.73v6.26ZM139.33,78h-0.25V75.78h0.21c0.78,0,1.7.14,1.7,1.12S140.12,78,139.33,78m2.87,3.3-2-2.72a1.7,1.7,0,0,0,1.5-1.75,1.73,1.73,0,0,0-.82-1.5,3.33,3.33,0,0,0-1.65-.29H138.3v6.26h0.78V78.7h0.32l1.85,2.65h0.95Zm-8.65-.6a2.51,2.51,0,0,1-2.5-2.53,2.5,2.5,0,1,1,5,0,2.51,2.51,0,0,1-2.5,2.53m0-5.8a3.29,3.29,0,0,0-3.28,3.26,3.28,3.28,0,0,0,6.56,0A3.29,3.29,0,0,0,133.54,75m-7.5,6.4h0.78V78.27H129V77.56h-2.17V75.8h2.25V75.08h-3v6.26Zm-6.61-.6a1.17,1.17,0,0,1-1.21-1.19l-0.79.17a2,2,0,0,0,1.94,1.75,1.93,1.93,0,0,0,2-1.95,2,2,0,0,0-1.55-1.89l-0.45-.17a1.11,1.11,0,0,1-.87-0.9,1,1,0,0,1,1-.89,1.07,1.07,0,0,1,1,.59l0.62-.37a1.79,1.79,0,0,0-1.61-.95,1.71,1.71,0,0,0-1.84,1.62,1.77,1.77,0,0,0,1.36,1.59l0.43,0.18a1.35,1.35,0,0,1,1.08,1.19,1.18,1.18,0,0,1-1.15,1.22M113.56,78h-0.25V75.78h0.21c0.77,0,1.7.14,1.7,1.12S114.36,78,113.56,78m0.89,0.57a1.7,1.7,0,0,0,1.5-1.75,1.73,1.73,0,0,0-.82-1.5,3.33,3.33,0,0,0-1.65-.29h-0.95v6.26h0.78V78.7h0.32l1.84,2.65h0.95Zm-7,2.72h3.36V80.63h-2.58V78.27h2.51V77.55h-2.51V75.8h2.58V75.08h-3.36v6.26Zm-1.19,0-2.86-3.45,2.81-2.82h-1l-2.66,2.71V75.08h-0.78v6.26h0.78V78.73l0.32-.3,2.36,2.92h1.05Zm-9.85-2.28,1.11-2.54,1.11,2.54H96.44Zm-1.88,2.28h0.84l0.71-1.57H99l0.72,1.57h0.84l-3-6.53Zm-2.31-4.14h0L93,81.35h0.8l-1.28-6.53-2.15,4.93-2.15-4.93L87,81.35h0.8l0.73-4.14h0l1.88,4.27Zm-9.9-1.41h1.49v5.55h0.78V75.8h1.49V75.08H82.36V75.8Zm-2,3.91-4.7-4.92v6.56h0.78V76.68l4.7,4.93V75.08H80.33v4.62Zm-10-.65,1.12-2.54,1.11,2.54H70.36Zm-1.87,2.28h0.84L70,79.78h2.87l0.72,1.57h0.84l-3-6.53ZM65,78H64.7V75.78h0.21c0.77,0,1.7.14,1.7,1.12S65.75,78,65,78m2.87,3.3-2-2.72a1.71,1.71,0,0,0,1.5-1.75,1.74,1.74,0,0,0-.82-1.5,3.32,3.32,0,0,0-1.65-.29H63.92v6.26H64.7V78.7H65l1.85,2.65h0.94Zm-5.38-3.16H59.95V78.9h1.62a2.1,2.1,0,0,1-2.05,1.86,2.56,2.56,0,0,1-2.43-2.56,2.47,2.47,0,0,1,4.47-1.52l0.55-.52a3.26,3.26,0,0,0-5.8,2.07,3.24,3.24,0,0,0,3.16,3.25,2.91,2.91,0,0,0,3-3V78.19Z" transform="translate(-14 -8)"/><path class="cls-1" d="M59.89,40.91h0.4a11.06,11.06,0,0,1,10.54,9.23s0.06,1,.06,1.24L74,51.51v0A13.82,13.82,0,0,0,59.89,38,13.91,13.91,0,0,0,45.71,52.07v0a13.74,13.74,0,0,0,14.13,14H60a13.7,13.7,0,0,0,12.34-7.23H68.77a10.78,10.78,0,0,1-8.88,4.31h-0.1a11.65,11.65,0,0,1-7.21-2.67,10.46,10.46,0,0,1-3.77-7.51,18.34,18.34,0,0,1,.1-2.92,10.83,10.83,0,0,1,11-9.22m29.9,22.32A10.86,10.86,0,0,1,78.68,52.07a11.11,11.11,0,1,1,22.22,0A10.86,10.86,0,0,1,89.79,63.23M99.87,42A14.23,14.23,0,1,0,89.79,66.14h0A14.19,14.19,0,0,0,99.87,42M28.41,63.23c-7.74,0-11.31-5.8-11.4-11.17,0-6.63,5-11.13,11.26-11.15A10.86,10.86,0,0,1,39.38,52.07a10.85,10.85,0,0,1-11,11.16M39.24,43a14.12,14.12,0,0,0-11-5A13.85,13.85,0,0,0,14,52.07a14.27,14.27,0,0,0,3.78,9.75,14,14,0,0,0,10.49,4.33,13.55,13.55,0,0,0,11-5.07v8A11,11,0,0,1,28.41,80.31a11.35,11.35,0,0,1-6.9-2.43,12.09,12.09,0,0,1-3.09-3.69l-0.25-.4H14.89L15.4,75a14.36,14.36,0,0,0,13.2,8.26,14.62,14.62,0,0,0,8.36-3c2.89-2.19,5.28-5.89,5.29-11.41V38.61h-3V43Z" transform="translate(-14 -8)"/><polygon class="cls-1" points="48.46 45.03 71.78 43.55 49.37 41.9 54.6 37 48.24 40.5 61.62 0 45.3 40.11 39.98 34.31 43 41.89 20.02 43.37 42.06 45.02 36.48 50.29 42.89 46.66 30.19 85.47 45.95 46.68 52.02 53.39 48.46 45.03"/></svg>